<svg width="32" height="32" viewBox="0 0 32 32" fill="none" xmlns="http://www.w3.org/2000/svg">
<path d="M11.5558 29.3332C14.0091 29.3332 16.0002 27.3421 16.0002 24.8888V20.4443H11.5558C9.10244 20.4443 7.11133 22.4354 7.11133 24.8888C7.11133 27.3421 9.10244 29.3332 11.5558 29.3332Z" fill="#0ACF83"/>
<path d="M7.11133 16.0001C7.11133 13.5468 9.10244 11.5557 11.5558 11.5557H16.0002V20.4446H11.5558C9.10244 20.4446 7.11133 18.4534 7.11133 16.0001Z" fill="#A259FF"/>
<path d="M7.11133 7.11095C7.11133 4.65762 9.10244 2.6665 11.5558 2.6665H16.0002V11.5554H11.5558C9.10244 11.5554 7.11133 9.56428 7.11133 7.11095Z" fill="#F24E1E"/>
<path d="M16 2.6665H20.4444C22.8978 2.6665 24.8889 4.65762 24.8889 7.11095C24.8889 9.56428 22.8978 11.5554 20.4444 11.5554H16V2.6665Z" fill="#FF7262"/>
<path d="M24.8889 16.0001C24.8889 18.4534 22.8978 20.4446 20.4444 20.4446C17.9911 20.4446 16 18.4534 16 16.0001C16 13.5468 17.9911 11.5557 20.4444 11.5557C22.8978 11.5557 24.8889 13.5468 24.8889 16.0001Z" fill="#1ABCFE"/>
</svg>
