<svg width="40" height="40" viewBox="0 0 40 40" fill="none" xmlns="http://www.w3.org/2000/svg">
<path d="M4.00984 14.5195H11.042V35.6814H4.00984V14.5195ZM7.57297 4.3186C5.16617 4.3186 3.59375 5.89868 3.59375 7.97259C3.59375 10.0038 5.12016 11.6299 7.48094 11.6299H7.52578C9.97859 11.6299 11.5061 10.0038 11.5061 7.97259C11.4601 5.89868 9.97867 4.3186 7.57297 4.3186ZM28.3077 14.0224C24.575 14.0224 22.9027 16.0756 21.9698 17.5154V14.5195H14.9356C15.0287 16.5048 14.9356 35.6814 14.9356 35.6814H21.9698V23.8631C21.9698 23.2302 22.0159 22.5995 22.2009 22.1461C22.7102 20.8825 23.8676 19.574 25.8089 19.574C28.3559 19.574 29.3731 21.5155 29.3731 24.359V35.6813H36.4062V23.5467C36.4062 17.0468 32.9373 14.0224 28.3077 14.0224Z" fill="white"/>
</svg>
