<svg width="32" height="32" viewBox="0 0 32 32" fill="none" xmlns="http://www.w3.org/2000/svg">
<g clip-path="url(#clip0_225_10)">
<path d="M31.3965 14.7529L17.4286 2.52792C17.042 2.18988 16.5177 2 15.9711 2C15.4245 2 14.9003 2.18988 14.5136 2.52792L11.6093 5.06729L15.2893 8.28729C17.2222 7.71604 19.0522 9.33542 18.3886 11.0173L21.9358 14.121C24.3808 13.3835 26.3058 16.0585 24.4693 17.6642C22.5772 19.3198 19.4543 17.4848 20.4693 15.3304L17.1586 12.4373V20.0529C18.9658 20.8367 18.7486 22.6685 17.8072 23.4904C17.3472 23.8926 16.7236 24.1186 16.0733 24.1186C15.423 24.1186 14.7993 23.8926 14.3393 23.4904C13.0843 22.3904 13.5486 20.5585 15.1429 19.9904V12.3029C13.6572 11.771 13.3858 10.3817 13.8115 9.49042L10.1836 6.31229L0.603628 14.696C0.217127 15.0343 0 15.493 0 15.9714C0 16.4497 0.217127 16.9084 0.603628 17.2467L14.5758 29.4717C14.9623 29.8097 15.4864 29.9995 16.0329 29.9995C16.5794 29.9995 17.1035 29.8097 17.4901 29.4717L31.3965 17.3035C31.783 16.9653 32.0001 16.5065 32.0001 16.0282C32.0001 15.5499 31.783 15.0912 31.3965 14.7529Z" fill="#FF6756"/>
</g>
<defs>
<clipPath id="clip0_225_10">
<rect width="32" height="32" fill="white"/>
</clipPath>
</defs>
</svg>
