<svg width="32" height="32" viewBox="0 0 32 32" fill="none" xmlns="http://www.w3.org/2000/svg">
<path d="M6.95009 6.64936C7.84587 7.37708 8.18192 7.32155 9.86397 7.20933L25.7219 6.25714C26.0581 6.25714 25.7784 5.92161 25.6664 5.86585L23.0326 3.96193C22.5281 3.57017 21.8557 3.12148 20.5672 3.23372L5.212 4.35368C4.65202 4.40921 4.54015 4.68919 4.76319 4.91363L6.95009 6.64936ZM7.90217 10.345V27.0303C7.90217 27.9269 8.35028 28.2625 9.35888 28.207L26.7867 27.1986C27.7957 27.1431 27.9081 26.5262 27.9081 25.7979V9.22457C27.9081 8.49729 27.6285 8.10508 27.0107 8.16106L8.79843 9.22457C8.12634 9.28104 7.90217 9.61723 7.90217 10.345ZM25.1069 11.24C25.2187 11.7445 25.1069 12.2485 24.6015 12.3051L23.7618 12.4724V24.7905C23.0326 25.1824 22.3604 25.4064 21.8002 25.4064C20.9032 25.4064 20.6786 25.1263 20.0067 24.2868L14.5141 15.6641V24.0069L16.2522 24.399C16.2522 24.399 16.2522 25.4064 14.8499 25.4064L10.9842 25.6306C10.8719 25.4064 10.9842 24.847 11.3763 24.7348L12.3851 24.4553V13.4247L10.9844 13.3124C10.8721 12.808 11.1519 12.0807 11.9369 12.0242L16.084 11.7447L21.8002 20.4797V12.7524L20.3428 12.5851C20.2309 11.9685 20.6786 11.5207 21.239 11.4652L25.1069 11.24ZM3.92274 2.84195L19.8946 1.66578C21.8561 1.49755 22.3606 1.61024 23.5935 2.50574L28.6917 6.08914C29.5331 6.70536 29.8134 6.87312 29.8134 7.54487V27.1986C29.8134 28.4302 29.3648 29.1587 27.7959 29.2701L9.24792 30.3903C8.0703 30.4464 7.50983 30.2785 6.89313 29.4941L3.13857 24.6228C2.4658 23.7262 2.18604 23.0552 2.18604 22.2704V4.80097C2.18604 3.7937 2.63485 2.95351 3.92274 2.84195Z" fill="#DBDBDB"/>
</svg>
