<svg width="36" height="32" viewBox="0 0 36 32" fill="none" xmlns="http://www.w3.org/2000/svg">
<g clip-path="url(#clip0_225_14)">
<path d="M18 5.3335C15.5377 5.3335 13.4208 5.92424 11.7591 7.19029C10.1093 8.44722 9.03012 10.277 8.43144 12.5578C8.30076 13.0555 8.58571 13.5657 9.11076 13.7741C9.6358 13.9825 10.2534 13.8306 10.5831 13.4118C11.343 12.4469 12.1018 11.8671 12.8308 11.5695C13.5368 11.2813 14.2979 11.2229 15.1696 11.4305C16.0493 11.6399 16.7302 12.2534 17.7993 13.2869L17.8339 13.3203C18.6398 14.0995 19.6229 15.05 20.9675 15.7874C22.3627 16.5527 24.099 17.0668 26.4001 17.0668C28.8623 17.0668 30.9793 16.476 32.6411 15.21C34.2906 13.9531 35.3699 12.1233 35.9687 9.84253C36.0993 9.34478 35.8144 8.83459 35.2893 8.62619C34.7644 8.41778 34.1466 8.56972 33.8169 8.98845C33.057 9.95342 32.2984 10.5332 31.5693 10.8308C30.8632 11.119 30.1021 11.1774 29.2305 10.9698C28.3509 10.7604 27.6697 10.1469 26.6008 9.11338L26.5662 9.07997C25.7603 8.30081 24.7773 7.35031 23.4326 6.61288C22.0373 5.84765 20.3011 5.3335 18 5.3335Z" fill="#0BBFAA"/>
<path d="M9.60014 14.9331C7.13782 14.9331 5.02087 15.5238 3.35918 16.7899C1.70945 18.0468 0.630221 19.8766 0.0315276 22.1574C-0.0991336 22.6552 0.185799 23.1652 0.710846 23.3737C1.23589 23.5821 1.85346 23.4302 2.18322 23.0114C2.94312 22.0465 3.70186 21.4667 4.43088 21.1691C5.13691 20.8809 5.89793 20.8226 6.76966 21.0301C7.64935 21.2396 8.33033 21.853 9.39943 22.8866L9.43397 22.9199C10.2398 23.699 11.223 24.6496 12.5676 25.3871C13.9628 26.1523 15.6991 26.6665 18.0001 26.6665C20.4624 26.6665 22.5794 26.0757 24.2412 24.8096C25.8907 23.5526 26.97 21.7229 27.5688 19.4421C27.6994 18.9444 27.4145 18.4342 26.8894 18.2258C26.3645 18.0174 25.7467 18.1693 25.417 18.5881C24.6571 19.553 23.8984 20.1328 23.1694 20.4304C22.4634 20.7186 21.7023 20.777 20.8306 20.5694C19.9509 20.36 19.27 19.7465 18.2009 18.713L18.1663 18.6796C17.3604 17.9004 16.3773 16.9499 15.0327 16.2125C13.6374 15.4473 11.9012 14.9331 9.60014 14.9331Z" fill="#0BBFAA"/>
</g>
<defs>
<clipPath id="clip0_225_14">
<rect width="36" height="32" fill="white"/>
</clipPath>
</defs>
</svg>
