<svg width="40" height="40" viewBox="0 0 40 40" fill="none" xmlns="http://www.w3.org/2000/svg">
<path d="M37.2794 10.6293C36.0016 11.1972 34.6265 11.5804 33.1837 11.7518C34.6568 10.8699 35.7864 9.47286 36.3191 7.80634C34.9412 8.62408 33.4158 9.21745 31.7909 9.53777C30.4905 8.15207 28.6371 7.28564 26.586 7.28564C22.6483 7.28564 19.4557 10.4783 19.4557 14.4167C19.4557 14.9748 19.5185 15.5188 19.6405 16.0416C13.7139 15.7438 8.45891 12.9054 4.94172 8.59092C4.32789 9.64361 3.97652 10.8684 3.97652 12.1765C3.97652 14.6502 5.23523 16.8332 7.14869 18.1117C5.9803 18.0743 4.88034 17.7533 3.91867 17.2191C3.91796 17.2488 3.91796 17.2791 3.91796 17.3095C3.91796 20.7639 6.37611 23.6453 9.63859 24.3015C9.04028 24.4638 8.41022 24.5513 7.7597 24.5513C7.29968 24.5513 6.85307 24.5068 6.41774 24.4229C7.32579 27.2557 9.95892 29.318 13.0789 29.3751C10.6384 31.2879 7.56427 32.4281 4.22276 32.4281C3.64773 32.4281 3.07976 32.3942 2.52167 32.3279C5.67832 34.3521 9.42622 35.5318 13.4528 35.5318C26.5698 35.5318 33.7417 24.6663 33.7417 15.2429C33.7417 14.9339 33.7354 14.6255 33.722 14.3193C35.1148 13.316 36.3241 12.0594 37.2794 10.6293Z" fill="white"/>
</svg>
